<?xml version="1.0" standalone="no"?>
<!DOCTYPE svg PUBLIC "-//W3C//DTD SVG 20010904//EN"
 "http://www.w3.org/TR/2001/REC-SVG-20010904/DTD/svg10.dtd">
<svg version="1.0" xmlns="http://www.w3.org/2000/svg"
 width="120.000000pt" height="120.000000pt" viewBox="0 0 120.000000 120.000000"
 preserveAspectRatio="xMidYMid meet">

<g transform="translate(0.000000,120.000000) scale(0.100000,-0.100000)"
fill="#000000" stroke="none">
<path d="M74 1190 c-11 -4 -33 -23 -48 -40 l-27 -32 3 -524 3 -524 33 -32 32
-33 282 -3 281 -3 -40 44 c-23 25 -49 59 -57 76 l-17 31 -170 0 c-174 0 -209
6 -209 38 0 38 19 42 184 42 l161 0 0 95 0 95 -164 2 c-143 3 -165 5 -175 21
-8 12 -8 22 0 35 10 15 32 17 192 20 l181 2 30 44 c34 49 86 98 134 123 31 18
26 18 -253 23 l-285 5 -3 24 c-7 48 10 51 309 51 156 0 289 -4 303 -10 17 -6
26 -17 26 -31 0 -19 4 -21 31 -15 17 3 49 6 71 6 l39 0 -3 205 -3 205 -33 32
-32 33 -378 2 c-207 1 -386 -2 -398 -7z m694 -172 c18 -18 14 -46 -7 -58 -12
-6 -126 -10 -301 -10 -175 0 -289 4 -301 10 -21 12 -25 40 -7 58 17 17 599 17
616 0z"/>
<path d="M762 619 c-64 -25 -139 -96 -172 -164 -21 -41 -25 -65 -25 -135 0
-78 3 -90 34 -148 38 -69 80 -110 151 -144 35 -17 64 -22 130 -22 79 -1 89 1
150 35 194 106 227 355 68 511 -87 85 -220 111 -336 67z m246 -211 c7 -7 12
-20 12 -29 0 -20 -155 -159 -177 -159 -22 0 -103 70 -103 89 0 38 55 56 80 26
19 -23 27 -19 88 35 57 51 79 59 100 38z"/>
</g>
</svg>
