<?xml version="1.0" standalone="no"?>
<!DOCTYPE svg PUBLIC "-//W3C//DTD SVG 20010904//EN"
 "http://www.w3.org/TR/2001/REC-SVG-20010904/DTD/svg10.dtd">
<svg version="1.0" xmlns="http://www.w3.org/2000/svg"
 width="108.000000pt" height="101.000000pt" viewBox="0 0 108.000000 101.000000"
 preserveAspectRatio="xMidYMid meet">

<g transform="translate(0.000000,101.000000) scale(0.100000,-0.100000)"
fill="#000000" stroke="none">
<path d="M33 986 c-26 -23 -28 -31 -32 -110 l-3 -86 536 0 536 0 1 58 c2 86 0
95 -32 127 -26 27 -36 30 -103 33 l-75 4 -3 -63 c-3 -59 -5 -64 -27 -67 -31
-5 -41 12 -41 76 l0 52 -270 0 -270 0 6 -40 c4 -21 3 -51 0 -65 -5 -21 -12
-26 -34 -23 -26 3 -27 6 -30 66 l-3 62 -64 0 c-53 0 -69 -4 -92 -24z"/>
<path d="M2 385 c3 -333 3 -335 26 -357 l23 -23 457 -3 c314 -2 469 0 495 8
25 7 45 22 57 43 19 30 20 52 20 350 l0 317 -540 0 -541 0 3 -335z m323 140
l0 -60 -65 0 -65 0 -3 49 c-5 74 -2 77 70 74 l63 -3 0 -60z m268 46 c2 -11 2
-40 0 -65 l-6 -46 -63 0 -64 0 0 65 0 65 64 0 c54 0 64 -3 69 -19z m267 -46
l0 -65 -65 0 -65 0 0 65 0 65 65 0 65 0 0 -65z m-532 -293 c2 -31 -2 -60 -9
-68 -14 -17 -100 -19 -117 -2 -13 13 -17 110 -5 122 4 4 34 6 68 4 l60 -3 3
-53z m265 36 c3 -13 2 -43 -1 -68 l-7 -45 -60 0 -60 0 -3 54 c-5 78 -2 81 67
81 53 0 59 -2 64 -22z m262 -48 l0 -65 -60 0 -60 0 -3 54 c-5 79 -2 82 65 79
l58 -3 0 -65z"/>
</g>
</svg>
