<?xml version="1.0" standalone="no"?>
<!DOCTYPE svg PUBLIC "-//W3C//DTD SVG 20010904//EN"
 "http://www.w3.org/TR/2001/REC-SVG-20010904/DTD/svg10.dtd">
<svg version="1.0" xmlns="http://www.w3.org/2000/svg"
 width="120.000000pt" height="120.000000pt" viewBox="0 0 120.000000 120.000000"
 preserveAspectRatio="xMidYMid meet">

<g transform="translate(0.000000,120.000000) scale(0.100000,-0.100000)"
fill="#000000" stroke="none">
<path d="M252 1180 c-40 -25 -66 -80 -57 -121 8 -35 56 -86 88 -92 12 -2 -11
-5 -50 -6 -56 -1 -77 -5 -91 -19 -11 -11 -39 -92 -67 -190 -41 -146 -47 -175
-37 -197 27 -59 89 -43 115 30 19 55 19 54 -14 -108 -25 -125 -23 -138 28
-158 22 -8 23 -12 23 -147 0 -122 2 -141 18 -155 23 -21 41 -21 70 -1 21 14
22 22 22 154 0 82 4 141 10 145 6 4 10 -42 10 -132 0 -109 3 -143 16 -161 19
-28 57 -29 84 -2 18 18 20 33 20 158 0 131 1 138 22 147 40 18 43 37 24 137
-28 148 -27 146 -13 110 7 -18 19 -37 27 -42 39 -25 90 3 90 49 0 48 -92 346
-112 364 -15 12 -38 17 -87 17 -65 1 -66 1 -34 15 18 8 42 29 53 47 63 100
-58 221 -158 158z"/>
<path d="M844 1190 c-35 -14 -74 -69 -74 -104 0 -45 38 -98 80 -113 32 -11 29
-12 -51 -12 -123 -1 -123 -1 -159 -191 -17 -85 -30 -169 -30 -186 0 -54 59
-84 94 -48 9 8 16 16 17 17 0 1 8 49 18 107 l19 105 1 -362 c1 -349 2 -364 21
-383 24 -24 48 -25 78 -4 21 15 22 20 22 215 0 131 3 198 10 194 6 -4 10 -81
10 -199 0 -174 2 -195 18 -209 24 -22 55 -21 75 1 15 17 17 58 18 383 0 200 4
355 8 344 4 -11 14 -56 20 -100 15 -93 31 -125 66 -125 28 0 65 32 65 56 0 41
-63 345 -75 361 -10 14 -33 19 -107 24 -51 3 -83 6 -71 7 30 3 80 55 85 91 13
91 -75 165 -158 131z"/>
</g>
</svg>
