<svg width="16" height="16" viewBox="0 0 16 16" fill="none" xmlns="http://www.w3.org/2000/svg">
<path d="M9.13596 2.11796C9.40478 2.76159 9.67348 3.40522 9.94206 4.04885C10.0889 4.40203 10.2361 4.75521 10.3768 5.11165C10.4238 5.2306 10.4844 5.28315 10.6165 5.29497C11.5488 5.37644 12.4781 5.47461 13.4089 5.56586C14.1278 5.63647 14.8469 5.70572 15.5661 5.77361C15.7545 5.79113 15.9115 5.85794 15.9744 6.05592C16.0393 6.26245 15.9787 6.4368 15.819 6.58263C14.7261 7.58528 13.6343 8.5901 12.5437 9.5971C12.4804 9.65535 12.4252 9.72786 12.3534 9.769C11.9676 9.99224 11.9684 10.3018 12.0651 10.7165C12.4217 12.2453 12.7383 13.7844 13.0678 15.3197C13.0933 15.4172 13.1029 15.5186 13.0961 15.6195C13.0573 15.9377 12.7465 16.0884 12.461 15.9185C11.9893 15.6383 11.5263 15.3425 11.0601 15.0525C10.0889 14.4479 9.11847 13.8421 8.14882 13.2348C8.03771 13.1652 7.95458 13.1749 7.84891 13.2417C6.65757 13.9883 5.46505 14.732 4.27138 15.4729C4.22709 15.5006 4.1797 15.5217 4.13347 15.5458C4.04762 15.4378 4.11132 15.3225 4.12803 15.2162C4.34821 13.8181 4.65459 12.4364 5.04524 11.0799C5.50142 9.49063 6.06791 7.93852 6.74018 6.43598C7.37389 5.00449 8.10861 3.6246 8.93821 2.30779C8.98716 2.2308 9.01009 2.11104 9.13596 2.11796Z" fill="#FFD600"/>
<path d="M9.13593 2.1179C8.80883 2.55337 8.54815 3.03405 8.27621 3.50659C7.80732 4.32131 7.37843 5.16169 6.98257 6.01878C6.47162 7.13084 6.01648 8.27015 5.619 9.43205C5.18805 10.6945 4.82808 11.9823 4.54096 13.2889C4.37469 14.034 4.2364 14.7856 4.13423 15.5441C3.9329 15.7014 3.71744 15.8379 3.4909 15.9514C3.4222 15.9909 3.34345 16.0069 3.26565 15.9972C3.18786 15.9875 3.1149 15.9526 3.05696 15.8973C2.9923 15.8459 2.94372 15.7755 2.91743 15.695C2.89113 15.6145 2.88831 15.5277 2.90934 15.4455C3.27062 13.7688 3.62454 12.0905 3.99709 10.4162C4.04565 10.1979 3.99709 10.085 3.8417 9.9441C2.72986 8.93385 1.62735 7.91138 0.522895 6.89298C0.397026 6.77688 0.27038 6.66119 0.147231 6.54183C0.0112622 6.41025 -0.0349659 6.24731 0.0271912 6.06359C0.086629 5.88802 0.210941 5.79351 0.389643 5.77599C1.05654 5.71027 1.72343 5.64387 2.39032 5.57679C3.0185 5.51365 3.64629 5.44848 4.27485 5.38737C4.6342 5.35234 4.99354 5.31731 5.35328 5.29409C5.49973 5.28431 5.58131 5.22891 5.64114 5.08144C6.28472 3.49763 6.93219 1.91558 7.58355 0.335289C7.66124 0.141793 7.77974 0.00247685 7.99923 3.26928e-05C8.21872 -0.00241147 8.34148 0.132425 8.42112 0.325921C8.6454 0.871512 8.86839 1.41765 9.09008 1.96432C9.10811 2.01457 9.12342 2.06584 9.13593 2.1179Z" fill="#FFE55C"/>
</svg>
