<?xml version="1.0" standalone="no"?>
<!DOCTYPE svg PUBLIC "-//W3C//DTD SVG 20010904//EN"
 "http://www.w3.org/TR/2001/REC-SVG-20010904/DTD/svg10.dtd">
<svg version="1.0" xmlns="http://www.w3.org/2000/svg"
 width="120.000000pt" height="120.000000pt" viewBox="0 0 120.000000 120.000000"
 preserveAspectRatio="xMidYMid meet">

<g transform="translate(0.000000,120.000000) scale(0.100000,-0.100000)"
fill="#000000" stroke="none">
<path d="M125 1186 c-44 -20 -85 -68 -95 -110 -30 -135 106 -239 229 -176 136
69 92 282 -60 296 -25 3 -57 -2 -74 -10z"/>
<path d="M531 1048 c-58 -39 -75 -71 -79 -148 l-4 -70 -175 0 c-194 0 -219 -6
-253 -63 -17 -28 -20 -51 -20 -172 0 -146 4 -172 40 -270 15 -39 25 -97 29
-169 7 -102 9 -111 35 -133 38 -33 123 -33 161 0 25 21 28 31 36 140 5 78 15
133 28 164 33 78 40 130 41 281 l0 142 109 0 c117 0 136 -7 129 -52 -3 -21 -8
-23 -80 -26 l-78 -3 0 -72 c0 -99 13 -139 60 -181 34 -30 47 -36 85 -36 25 0
45 -3 45 -8 0 -4 -15 -43 -34 -86 -39 -90 -36 -120 12 -114 22 3 31 16 66 95
23 51 46 97 52 103 7 7 42 10 90 8 l79 -3 50 -100 c52 -104 76 -125 105 -90
11 13 7 29 -23 100 -21 46 -37 86 -37 89 0 3 16 6 36 6 54 0 102 27 129 75 25
41 25 45 25 269 0 248 -2 256 -60 311 l-31 30 -267 3 c-265 3 -268 3 -301 -20z
m439 -132 c6 -8 10 -25 8 -38 -3 -23 -5 -23 -147 -26 -147 -3 -171 2 -171 37
0 36 21 41 161 41 107 0 139 -3 149 -14z m8 -185 c6 -43 -19 -51 -156 -51 -68
0 -132 5 -143 10 -18 10 -26 50 -12 64 4 3 75 5 157 4 l151 -3 3 -24z m-74
-137 c21 -8 21 -60 0 -68 -30 -11 -219 -7 -232 6 -15 15 -15 41 0 56 13 13
202 17 232 6z"/>
</g>
</svg>
