<svg width="18" height="18" viewBox="0 0 18 18" fill="none" xmlns="http://www.w3.org/2000/svg">
<path d="M13.4996 6C13.4996 4.80653 13.0255 3.66193 12.1816 2.81802C11.3377 1.97411 10.1931 1.5 8.99963 1.5C7.80616 1.5 6.66157 1.97411 5.81765 2.81802C4.97374 3.66193 4.49963 4.80653 4.49963 6C4.49963 11.25 2.24963 12.75 2.24963 12.75H15.7496C15.7496 12.75 13.4996 11.25 13.4996 6Z" stroke="#242424" stroke-width="1.5" stroke-linecap="round" stroke-linejoin="round"/>
<path d="M10.2971 15.75C10.1653 15.9773 9.97603 16.166 9.74832 16.2971C9.52061 16.4283 9.26243 16.4973 8.99965 16.4973C8.73686 16.4973 8.47869 16.4283 8.25098 16.2971C8.02327 16.166 7.83401 15.9773 7.70215 15.75" stroke="#242424" stroke-width="1.5" stroke-linecap="round" stroke-linejoin="round"/>
</svg>
