<svg width="14" height="14" viewBox="0 0 14 14" fill="none" xmlns="http://www.w3.org/2000/svg">
<g clip-path="url(#clip0_1_183)">
<path d="M9.91666 1.16666H4.08332C2.47249 1.16666 1.16666 2.4725 1.16666 4.08333V9.91667C1.16666 11.5275 2.47249 12.8333 4.08332 12.8333H9.91666C11.5275 12.8333 12.8333 11.5275 12.8333 9.91667V4.08333C12.8333 2.4725 11.5275 1.16666 9.91666 1.16666Z" stroke="white" stroke-linecap="round" stroke-linejoin="round"/>
<path d="M9.33333 6.6325C9.40532 7.11798 9.32239 7.61379 9.09635 8.04943C8.87031 8.48506 8.51266 8.83832 8.07427 9.05898C7.63589 9.27963 7.13909 9.35643 6.65453 9.27846C6.16998 9.20049 5.72235 8.97172 5.37531 8.62468C5.02828 8.27764 4.7995 7.83001 4.72153 7.34546C4.64356 6.86091 4.72036 6.36411 4.94102 5.92572C5.16167 5.48733 5.51493 5.12968 5.95057 4.90364C6.3862 4.6776 6.88202 4.59468 7.36749 4.66667C7.8627 4.7401 8.32115 4.97085 8.67515 5.32485C9.02914 5.67884 9.25989 6.1373 9.33333 6.6325Z" stroke="white" stroke-linecap="round" stroke-linejoin="round"/>
<path d="M10.2083 3.79166H10.2142" stroke="white" stroke-linecap="round" stroke-linejoin="round"/>
</g>
<defs>
<clipPath id="clip0_1_183">
<rect width="14" height="14" fill="white"/>
</clipPath>
</defs>
</svg>
