<svg width="14" height="14" viewBox="0 0 14 14" fill="none" xmlns="http://www.w3.org/2000/svg">
<path d="M9.33334 4.66666C10.2616 4.66666 11.1518 5.03541 11.8082 5.69179C12.4646 6.34817 12.8333 7.23841 12.8333 8.16666V12.25H10.5V8.16666C10.5 7.85725 10.3771 7.5605 10.1583 7.34171C9.93951 7.12291 9.64276 7 9.33334 7C9.02392 7 8.72718 7.12291 8.50839 7.34171C8.28959 7.5605 8.16668 7.85725 8.16668 8.16666V12.25H5.83334V8.16666C5.83334 7.23841 6.20209 6.34817 6.85847 5.69179C7.51485 5.03541 8.40509 4.66666 9.33334 4.66666V4.66666Z" stroke="white" stroke-linecap="round" stroke-linejoin="round"/>
<path d="M3.49999 5.25H1.16666V12.25H3.49999V5.25Z" stroke="white" stroke-linecap="round" stroke-linejoin="round"/>
<path d="M2.33332 3.5C2.97766 3.5 3.49999 2.97766 3.49999 2.33333C3.49999 1.689 2.97766 1.16666 2.33332 1.16666C1.68899 1.16666 1.16666 1.689 1.16666 2.33333C1.16666 2.97766 1.68899 3.5 2.33332 3.5Z" stroke="white" stroke-linecap="round" stroke-linejoin="round"/>
</svg>
