<svg width="90" height="34" viewBox="0 0 90 34" fill="none" xmlns="http://www.w3.org/2000/svg">
<path d="M88.9997 1L78.6934 4.72974L81.8645 6.80182M88.9997 1L81.8645 6.80182M88.9997 1L86.6213 10.5316L83.4501 8.41344M88.9997 1L83.4501 8.41344M81.8645 6.80182V10.5316L83.4501 8.41344" stroke="#EB5757" stroke-width="0.828831" stroke-linecap="round" stroke-linejoin="round"/>
<path d="M73.5405 28.3514V10.9459H77.1081V28.3514H73.5405Z" fill="#EB5757" stroke="#EB5757" stroke-width="0.828831" stroke-linecap="round" stroke-linejoin="round"/>
<path d="M12.4956 13.8464C12.4956 13.8464 12.4956 22.1814 12.4956 27.5221M12.4956 13.8464L23.1983 19.2338L20.4235 29.5942M12.4956 13.8464L5.90924 17.1617M12.4956 27.5221C10.5136 27.9366 10.9663 30.5376 9.32437 30.4231C7.79526 30.3166 8.07868 27.6287 6.54958 27.5221C4.90762 27.4077 5.00712 30.6689 3.37839 30.4231C1.96579 30.21 1 27.5221 1 27.5221M12.4956 27.5221C14.0811 27.9366 13.7378 30.4231 15.2703 30.4231C16.8028 30.4231 16.5161 27.6288 18.0451 27.5222C19.6871 27.4078 19.5744 30.5376 21.2163 30.4231C22.7454 30.3166 23.9911 27.5222 23.9911 27.5222M4.17119 29.5942L1.7928 19.2338L5.90924 17.1617M5.90924 17.1617V11.3599C5.90924 11.3599 9.60428 9.75358 12.0992 9.70225C14.8022 9.64665 18.8379 11.3599 18.8379 11.3599V16.7473" stroke="#EB5757" stroke-width="0.828831" stroke-linecap="round" stroke-linejoin="round"/>
<path d="M31.918 11.775H27.5576V28.7661H31.918V21.721H33.1072L37.4676 28.7661H42.2244L36.2784 20.0633L42.2244 11.775H37.4676L31.918 19.6489V11.775Z" fill="#EB5757" stroke="#EB5757" stroke-width="0.828831" stroke-linecap="round" stroke-linejoin="round"/>
<path d="M56.7206 24.4505H48.3837C48.4376 25.3409 48.7749 26.0221 49.3954 26.4943C50.0227 26.9664 50.9434 27.2025 52.1575 27.2025C52.9265 27.2025 53.6718 27.0642 54.3935 26.7877C55.1152 26.5112 55.6852 26.2144 56.1034 25.8974H56.5081V28.8213C55.6852 29.1518 54.9095 29.3913 54.1811 29.5397C53.4526 29.6881 52.6466 29.7623 51.763 29.7623C49.4831 29.7623 47.7362 29.2496 46.5221 28.2244C45.3079 27.1992 44.7009 25.7388 44.7009 23.8435C44.7009 21.9684 45.2742 20.4845 46.4209 19.3918C47.5743 18.2923 49.1526 17.7426 51.1559 17.7426C53.004 17.7426 54.3935 18.2114 55.3243 19.1489C56.2552 20.0798 56.7206 21.422 56.7206 23.1757V24.4505ZM53.0985 22.3157C53.0782 21.5535 52.8894 20.9802 52.5319 20.5958C52.1744 20.2113 51.6179 20.0191 50.8625 20.0191C50.161 20.0191 49.5843 20.2012 49.1324 20.5654C48.6805 20.9296 48.4275 21.5131 48.3736 22.3157H53.0985Z" fill="#EB5757"/>
<path d="M70.1976 24.4505H61.8607C61.9147 25.3409 62.252 26.0221 62.8725 26.4943C63.4998 26.9664 64.4205 27.2025 65.6346 27.2025C66.4035 27.2025 67.1489 27.0642 67.8706 26.7877C68.5923 26.5112 69.1622 26.2144 69.5804 25.8974H69.9851V28.8213C69.1622 29.1518 68.3866 29.3913 67.6581 29.5397C66.9296 29.6881 66.1236 29.7623 65.24 29.7623C62.9602 29.7623 61.2132 29.2496 59.9991 28.2244C58.785 27.1992 58.1779 25.7388 58.1779 23.8435C58.1779 21.9684 58.7513 20.4845 59.8979 19.3918C61.0513 18.2923 62.6297 17.7426 64.633 17.7426C66.4811 17.7426 67.8706 18.2114 68.8014 19.1489C69.7322 20.0798 70.1976 21.422 70.1976 23.1757V24.4505ZM66.5755 22.3157C66.5553 21.5535 66.3664 20.9802 66.0089 20.5958C65.6515 20.2113 65.095 20.0191 64.3395 20.0191C63.6381 20.0191 63.0614 20.2012 62.6094 20.5654C62.1575 20.9296 61.9046 21.5131 61.8506 22.3157H66.5755Z" fill="#EB5757"/>
</svg>
