<svg width="12" height="11" viewBox="0 0 12 11" fill="none" xmlns="http://www.w3.org/2000/svg">
<path d="M9.20662 6.83605C9.05683 6.98122 8.98801 7.19116 9.02213 7.39705L9.53628 10.2425C9.57965 10.4837 9.47787 10.7277 9.27602 10.8671C9.07823 11.0117 8.81508 11.0291 8.59936 10.9134L6.03786 9.57741C5.9488 9.52999 5.8499 9.50454 5.74869 9.50165H5.59196C5.53759 9.50975 5.48439 9.5271 5.4358 9.5537L2.87373 10.896C2.74707 10.9597 2.60364 10.9822 2.4631 10.9597C2.12072 10.8949 1.89228 10.5687 1.94838 10.2246L2.4631 7.37912C2.49723 7.17149 2.4284 6.9604 2.27861 6.81292L0.190204 4.78871C0.0155435 4.61925 -0.0451828 4.36478 0.0346289 4.13518C0.112127 3.90615 0.309922 3.73901 0.548779 3.70142L3.42316 3.28443C3.64177 3.26187 3.83379 3.12885 3.9321 2.93222L5.19868 0.335441C5.22876 0.277606 5.26751 0.224398 5.31435 0.179287L5.3664 0.138803C5.39358 0.108729 5.42482 0.0838602 5.45952 0.0636181L5.52256 0.0404842L5.62087 0H5.86436C6.08182 0.0225555 6.27325 0.152683 6.3733 0.347008L7.65665 2.93222C7.74919 3.12133 7.92905 3.25262 8.13668 3.28443L11.0111 3.70142C11.254 3.73612 11.457 3.90384 11.5374 4.13518C11.6131 4.36709 11.5478 4.62156 11.3696 4.78871L9.20662 6.83605Z" fill="#FCA21A"/>
</svg>
