<svg width="14" height="14" viewBox="0 0 14 14" fill="none" xmlns="http://www.w3.org/2000/svg">
<g clip-path="url(#clip0_1_160)">
<path d="M12.8333 9.87006V11.6201C12.834 11.7825 12.8007 11.9433 12.7356 12.0922C12.6705 12.241 12.5751 12.3747 12.4553 12.4845C12.3356 12.5943 12.1943 12.6779 12.0404 12.73C11.8865 12.782 11.7234 12.8014 11.5616 12.7867C9.76662 12.5917 8.04239 11.9783 6.52747 10.9959C5.11804 10.1003 3.92308 8.90533 3.02747 7.4959C2.04163 5.9741 1.42811 4.24148 1.23664 2.43839C1.22206 2.27708 1.24123 2.11451 1.29293 1.96101C1.34463 1.80751 1.42772 1.66646 1.53692 1.54684C1.64612 1.42722 1.77902 1.33164 1.92718 1.2662C2.07534 1.20076 2.2355 1.16688 2.39747 1.16673H4.14747C4.43057 1.16394 4.70502 1.26419 4.91967 1.44879C5.13431 1.63339 5.27452 1.88974 5.31414 2.17006C5.388 2.7301 5.52498 3.27999 5.72247 3.80923C5.80095 4.01802 5.81794 4.24493 5.77142 4.46307C5.72489 4.68122 5.61681 4.88146 5.45997 5.04006L4.71914 5.78089C5.54955 7.2413 6.75874 8.45049 8.21914 9.28089L8.95997 8.54006C9.11857 8.38322 9.31881 8.27514 9.53696 8.22862C9.7551 8.18209 9.98201 8.19908 10.1908 8.27756C10.72 8.47505 11.2699 8.61203 11.83 8.6859C12.1133 8.72587 12.3721 8.8686 12.5571 9.08693C12.7421 9.30527 12.8404 9.58398 12.8333 9.87006Z" stroke="white" stroke-width="1.5" stroke-linecap="round" stroke-linejoin="round"/>
</g>
<defs>
<clipPath id="clip0_1_160">
<rect width="14" height="14" fill="white"/>
</clipPath>
</defs>
</svg>
